<svg version="1.1" id="Layer_1" xmlns="http://www.w3.org/2000/svg" xmlns:xlink="http://www.w3.org/1999/xlink" x="0px" y="0px"
	 width="100%" viewBox="0 0 1024 1024" enable-background="new 0 0 1024 1024" xml:space="preserve">
<path fill="#000000" opacity="1.000000" stroke="none" 
	d="
M557.000366,332.903259 
	C524.700256,332.743164 492.900085,332.559906 461.099640,332.453827 
	C456.110352,332.437164 451.120972,332.857422 446.129669,332.921875 
	C438.309387,333.022919 437.989807,332.617920 438.826141,324.678192 
	C438.942841,323.570068 439.221832,322.479065 439.526917,320.834351 
	C441.728638,322.710602 440.598053,324.943756 441.587280,327.366974 
	C441.587280,315.821899 441.587280,305.025146 441.587280,294.212372 
	C440.431061,294.602509 441.457306,296.548645 439.397156,296.826721 
	C437.691345,294.000519 437.917755,290.700897 438.157074,287.494720 
	C438.344879,284.978638 440.478516,285.028381 442.331390,285.033569 
	C457.155396,285.075256 471.981476,285.004761 486.802582,285.240570 
	C498.279663,285.423157 509.771606,285.014130 521.215393,285.310516 
	C536.374878,285.703094 551.523376,285.706390 566.669983,285.560394 
	C587.639832,285.358276 608.609497,285.989532 629.581970,285.244385 
	C640.983459,284.839294 652.411255,285.172119 663.795593,285.172119 
	C664.540466,287.739624 662.721558,288.786682 661.515259,289.994507 
	C648.572388,302.953674 635.548096,315.831665 622.628784,328.814240 
	C619.483887,331.974609 615.952759,333.252808 611.466431,333.192505 
	C593.479675,332.950653 575.489258,332.977875 557.000366,332.903259 
z"/>
<path fill="#000000" opacity="1.000000" stroke="none" 
	d="
M537.338684,447.000061 
	C537.338379,457.074860 537.338379,466.649628 537.338379,476.073303 
	C533.960938,476.871429 532.846619,474.836517 531.503479,473.581543 
	C518.367432,461.307373 505.250885,449.008301 491.185455,437.791229 
	C488.114166,435.341949 487.409912,432.679291 487.444824,428.802185 
	C487.672577,403.492981 487.641571,378.179291 487.385651,352.870178 
	C487.345367,348.888611 488.263824,347.542053 492.238129,347.584717 
	C505.725250,347.729401 519.218811,347.800720 532.701843,347.516174 
	C537.245483,347.420319 537.396301,349.735046 537.389832,353.077240 
	C537.330750,383.551941 537.345154,414.026794 537.338135,444.501587 
	C537.337952,445.167755 537.338684,445.833893 537.338684,447.000061 
M490.766144,387.499847 
	C490.766144,375.764557 490.766144,364.029236 490.766144,352.293945 
	C490.643066,352.295593 490.519958,352.297211 490.396881,352.298859 
	C490.396881,374.045898 490.396881,395.792969 490.396881,417.540009 
	C490.591888,414.934570 493.729340,412.656494 492.744537,410.604004 
	C489.275024,403.373047 491.532928,395.837128 490.766144,387.499847 
M502.796783,404.152893 
	C500.170624,405.207520 497.362732,406.026642 495.726318,410.134674 
	C499.154694,408.009796 501.923218,406.658691 504.210449,404.735260 
	C505.516846,403.636658 504.052948,403.753998 502.796783,404.152893 
z"/>
<path fill="#000000" opacity="1.000000" stroke="none" 
	d="
M413.547394,648.349731 
	C401.558655,669.161011 367.002716,671.140076 351.029236,653.403564 
	C342.106140,643.495605 339.852081,631.863525 343.821655,619.462708 
	C348.175201,605.862366 358.329193,598.182800 372.184937,595.780090 
	C389.897125,592.708557 405.609802,599.996216 414.077271,615.125732 
	C420.176758,626.024231 419.436890,637.120483 413.547394,648.349731 
M395.381134,617.161072 
	C388.860870,610.464417 380.186768,608.251160 372.640808,611.358643 
	C364.947235,614.526917 360.168823,622.338318 360.395660,631.376282 
	C360.624207,640.482056 364.929382,646.749695 373.102234,649.874695 
	C381.102081,652.933594 390.650482,650.232117 395.968628,643.405396 
	C401.276978,636.591248 401.222321,625.172058 395.381134,617.161072 
z"/>
<path fill="#000000" opacity="1.000000" stroke="none" 
	d="
M518.908569,479.085693 
	C524.305603,483.815216 529.429443,488.319977 534.594727,492.776794 
	C536.327087,494.271545 537.330322,495.963593 537.322571,498.364594 
	C537.270203,514.688965 537.299744,531.013611 537.295471,547.338135 
	C537.295166,548.489929 537.258362,549.649719 536.541565,550.364014 
	C534.784607,550.925903 534.121033,549.772827 533.313477,549.019653 
	C519.064941,535.730408 504.838562,522.417419 490.579498,509.139496 
	C488.954559,507.626312 487.627594,506.174255 487.625031,503.683228 
	C487.608276,487.540985 487.471436,471.398834 487.397308,455.256561 
	C487.394470,454.634552 487.630157,454.011475 488.055359,451.885925 
	C498.713440,461.276031 508.682526,470.059113 518.908569,479.085693 
z"/>
<path fill="#000000" opacity="1.000000" stroke="none" 
	d="
M703.141602,645.998779 
	C703.109924,651.158936 703.057678,655.819397 703.049194,660.479980 
	C703.044312,663.139465 701.849121,664.211609 699.109619,664.411072 
	C685.619812,665.393066 685.624695,665.460083 685.622009,652.198120 
	C685.618958,637.244080 685.618530,637.184998 670.830383,637.298157 
	C656.443542,637.408264 658.251404,635.160217 658.139221,649.998291 
	C658.134216,650.664062 658.139709,651.329956 658.139282,651.995789 
	C658.130493,665.701965 657.948914,665.803162 644.126282,664.367493 
	C641.536987,664.098511 640.676086,662.981323 640.678406,660.589233 
	C640.697571,640.614197 640.703796,620.639038 640.656006,600.664124 
	C640.649597,597.980713 641.643555,596.683594 644.442932,596.701782 
	C660.805298,596.808350 658.162354,594.865540 658.138123,609.322632 
	C658.115784,622.622314 658.059937,622.622742 671.550720,622.674377 
	C673.381775,622.681396 675.212830,622.682312 677.043884,622.680725 
	C685.493347,622.673340 685.570801,622.672668 685.573181,613.914001 
	C685.574402,609.593567 685.259827,605.271423 685.029236,600.953125 
	C684.871582,598.001587 686.165649,596.673828 689.147705,596.745544 
	C705.613525,597.141663 703.109314,594.246460 703.153992,610.043884 
	C703.187439,621.862183 703.146973,633.680786 703.141602,645.998779 
z"/>
<path fill="#000000" opacity="1.000000" stroke="none" 
	d="
M462.998047,594.944824 
	C472.010986,595.547852 480.152466,597.478149 487.659393,601.925720 
	C490.453278,603.581055 491.028412,605.327820 489.523285,608.002808 
	C487.828888,611.014221 486.121460,614.018311 484.274323,617.282410 
	C478.658600,614.763550 473.625061,611.865479 467.838593,610.758728 
	C457.589020,608.798340 446.277618,615.776306 444.434021,625.476013 
	C441.900208,638.807007 447.936066,648.509888 460.069580,650.584045 
	C461.052887,650.752075 462.056030,650.816101 463.052673,650.892761 
	C474.032837,651.737793 476.054749,649.819946 475.554443,639.032349 
	C475.515869,638.201233 475.416809,637.372864 475.345856,636.543213 
	C474.851196,630.759766 475.356293,630.068115 481.094147,630.043518 
	C493.249664,629.991333 491.123749,629.084106 491.368835,639.976929 
	C491.458771,643.974487 490.999420,648.016235 491.437988,651.966003 
	C491.981567,656.861877 489.736389,659.326660 485.534180,660.993835 
	C468.860748,667.609070 452.543488,667.961365 437.617310,656.940552 
	C426.335480,648.610657 423.711304,636.164368 426.113770,623.285767 
	C428.668762,609.589355 437.809387,600.768921 451.257599,596.865784 
	C454.903351,595.807678 458.782928,595.555176 462.998047,594.944824 
z"/>
<path fill="#000000" opacity="1.000000" stroke="none" 
	d="
M506.833008,664.352539 
	C502.917084,664.155457 499.415863,664.844238 496.115021,663.931274 
	C495.072144,662.427795 495.802399,661.232178 496.337646,660.042236 
	C505.269989,640.184692 514.243591,620.345642 523.107849,600.457825 
	C524.274963,597.839233 525.842102,596.723328 528.768005,596.637634 
	C540.031738,596.308044 540.043152,596.210876 544.844666,606.470459 
	C553.370789,624.688416 561.879944,642.914368 570.385254,661.142029 
	C570.717468,661.854065 570.936340,662.618958 571.517639,664.203003 
	C565.552246,664.203003 560.149475,664.405762 554.773193,664.116394 
	C552.131409,663.974182 551.968933,661.063965 551.190552,659.192505 
	C547.306763,649.854431 548.870605,650.448669 537.807861,650.410339 
	C532.982727,650.393616 528.152039,650.540527 523.334167,650.351562 
	C520.057312,650.222961 517.940491,651.280762 516.903320,654.520752 
	C516.350525,656.247559 515.109985,657.768372 514.645935,659.506592 
	C513.601196,663.419250 511.236908,664.994080 506.833008,664.352539 
M532.101501,618.252502 
	C529.312927,624.313904 526.327576,630.300903 524.275635,637.267700 
	C530.334473,637.935730 535.634277,637.838196 541.857239,637.446167 
	C538.864502,630.300354 536.225037,623.952271 533.524475,617.630310 
	C533.290771,617.083191 532.709229,617.265137 532.101501,618.252502 
z"/>
<path fill="#000000" opacity="1.000000" stroke="none" 
	d="
M575.007690,616.875732 
	C575.632324,601.013184 588.538452,595.050720 603.894287,594.978149 
	C610.406067,594.947388 616.719482,596.600647 623.064453,597.950806 
	C627.116211,598.812988 628.181213,600.972778 627.202637,604.742981 
	C626.450378,607.640991 625.552063,610.445923 624.067444,613.044739 
	C619.120911,611.928345 614.465149,610.851929 609.797119,609.831787 
	C605.623230,608.919556 601.492126,609.254578 597.512573,610.722778 
	C595.214417,611.570557 593.520752,613.147034 593.402161,615.853943 
	C593.288940,618.438110 594.925842,620.011841 596.989563,620.751953 
	C601.989685,622.544983 607.080750,624.102478 612.186890,625.575378 
	C615.723572,626.595642 619.169434,627.759644 622.355774,629.627563 
	C634.539612,636.770142 634.953186,652.958618 622.916382,660.494080 
	C611.464478,667.663513 599.025085,666.198608 586.596924,663.790649 
	C586.435059,663.759277 586.282104,663.682922 586.124084,663.630249 
	C572.290222,659.011353 573.321167,661.119995 578.729126,645.967285 
	C582.739197,647.351807 586.747742,648.801147 590.799072,650.118713 
	C596.427002,651.948975 602.203796,652.575256 608.044373,651.496521 
	C610.695129,651.006897 613.324158,650.037292 613.780518,646.786072 
	C614.266174,643.326111 612.069763,641.705872 609.281494,640.453918 
	C603.935425,638.053345 598.230591,636.845276 592.643616,635.226990 
	C583.449219,632.563782 576.123840,627.961975 575.007690,616.875732 
z"/>
<path fill="#000000" opacity="1.000000" stroke="none" 
	d="
M391.514954,285.171753 
	C400.928253,285.148590 409.906982,285.232544 418.877045,284.992249 
	C422.980743,284.882355 424.510406,286.400055 424.450867,290.512299 
	C424.267914,303.151550 424.230896,315.795959 424.383972,328.435333 
	C424.433014,332.484100 422.817810,333.094086 419.054932,333.436523 
	C410.738495,334.193268 405.144958,330.574005 399.564636,324.902740 
	C388.492096,313.649841 376.739258,303.067596 365.322083,292.151215 
	C363.468903,290.379272 361.022461,289.004425 360.172974,285.146423 
	C370.694092,285.146423 380.885468,285.146423 391.514954,285.171753 
z"/>
<path fill="#000000" opacity="1.000000" stroke="none" 
	d="
M299.386719,611.381714 
	C294.457886,611.299805 289.961243,611.190979 285.468872,611.284973 
	C282.067719,611.356018 280.822205,609.867432 280.709137,606.488708 
	C280.386200,596.838379 280.275726,596.808655 289.927155,596.776550 
	C304.745605,596.727295 319.564392,596.690979 334.382629,596.749268 
	C336.707947,596.758423 339.994171,595.739075 340.672150,599.139343 
	C341.443085,603.006165 341.902252,607.110962 339.895630,610.847290 
	C339.258850,612.032959 337.824158,611.520386 336.676514,611.498657 
	C332.515717,611.419983 328.346710,611.525574 324.194641,611.303223 
	C320.474091,611.104004 319.259155,612.675293 319.297089,616.308533 
	C319.443024,630.293152 319.193420,644.283508 319.469452,658.264282 
	C319.564423,663.072693 318.052246,664.600525 313.229156,664.449219 
	C299.846924,664.029358 301.921021,665.847778 301.847809,653.016052 
	C301.779449,641.028381 301.857025,629.039856 301.762634,617.052490 
	C301.746918,615.056458 302.620972,612.555725 299.386719,611.381714 
z"/>
<path fill="#000000" opacity="1.000000" stroke="none" 
	d="
M472.685974,368.536316 
	C472.549011,374.317566 472.344482,379.639038 472.470123,384.952728 
	C472.543701,388.062653 471.694733,389.486633 468.282074,389.401031 
	C460.137848,389.196869 451.984894,389.229614 443.837250,389.321930 
	C440.364044,389.361267 438.661072,388.231903 438.683075,384.443939 
	C438.747620,373.304504 438.614838,362.162842 438.435394,351.024048 
	C438.397247,348.654999 439.270569,347.658661 441.569550,347.652039 
	C451.048431,347.624756 460.527252,347.566498 470.006073,347.524139 
	C472.839355,347.511475 473.171692,349.511963 473.141205,351.621704 
	C473.061981,357.106262 472.891296,362.589539 472.685974,368.536316 
M460.195679,350.282349 
	C455.283875,350.282349 450.372040,350.282349 445.460236,350.282349 
	C445.459930,350.381042 445.459625,350.479706 445.459320,350.578400 
	C450.469574,350.578400 455.479858,350.578400 460.195679,350.282349 
z"/>
<path fill="#000000" opacity="1.000000" stroke="none" 
	d="
M723.084351,664.340271 
	C718.014587,665.006836 716.572876,663.014832 716.619995,658.457703 
	C716.812866,639.807495 716.789124,621.152771 716.591431,602.502502 
	C716.545654,598.176147 717.894165,596.619751 722.291992,596.689453 
	C736.595581,596.916321 734.181152,595.084595 734.296631,608.421448 
	C734.435059,624.407837 734.338196,640.396423 734.318970,656.384033 
	C734.309387,664.353394 734.284973,664.353333 726.066101,664.342651 
	C725.233398,664.341553 724.400696,664.341125 723.084351,664.340271 
z"/>
<path fill="#000000" opacity="1.000000" stroke="none" 
	d="
M404.280426,357.731323 
	C401.364227,354.662720 397.727814,352.711029 395.773132,348.689545 
	C399.076996,346.952454 402.248291,347.892426 405.267395,347.698547 
	C407.086884,347.581757 408.920776,347.665283 410.747711,347.692291 
	C424.870514,347.901001 423.238342,345.455139 423.234100,360.528107 
	C423.232971,364.573242 423.898102,368.755188 422.022705,373.494080 
	C415.069336,369.139526 410.618042,362.582733 404.280426,357.731323 
z"/>
<path fill="#000000" opacity="1.000000" stroke="none" 
	d="
M423.567078,699.364441 
	C423.636963,695.215088 423.661713,691.396240 423.750336,687.578796 
	C423.777863,686.391724 423.974579,685.131775 425.552063,685.099548 
	C427.162445,685.066528 427.348083,686.293945 427.346100,687.511536 
	C427.335724,693.821106 427.313293,700.130798 427.258820,706.440125 
	C427.250336,707.417114 427.220917,708.515808 426.073608,708.944275 
	C424.542542,709.515869 423.552277,708.535217 422.654541,707.538025 
	C418.879272,703.344360 415.113922,699.141602 411.386169,694.905823 
	C410.760498,694.194824 410.338623,693.304504 408.982239,693.256958 
	C408.629944,698.541687 408.277649,703.826355 407.926788,709.089539 
	C404.984741,709.007385 404.974518,707.310730 404.952057,705.884583 
	C404.860565,700.074463 404.865814,694.262512 404.877167,688.451294 
	C404.879730,687.128296 404.881592,685.639587 406.433655,685.104736 
	C407.932037,684.588440 408.983826,685.637695 409.854004,686.628113 
	C413.249237,690.492432 416.507660,694.480225 419.991943,698.260742 
	C420.795746,699.132874 421.466736,701.520813 423.567078,699.364441 
z"/>
<path fill="#000000" opacity="1.000000" stroke="none" 
	d="
M454.524689,706.671082 
	C446.484283,711.380371 438.751953,710.231018 434.176727,703.954468 
	C430.655212,699.123413 431.327576,692.557495 435.753113,688.560852 
	C441.246796,683.599548 449.727844,683.477234 454.941345,688.284119 
	C459.556305,692.539124 459.505249,700.200256 454.524689,706.671082 
M454.068085,694.500366 
	C452.439575,690.274597 449.271881,688.323059 444.834991,688.361084 
	C441.375580,688.390747 438.785614,689.974792 437.309906,693.114014 
	C435.505981,696.951233 435.912140,700.675049 438.913391,703.666199 
	C441.968628,706.711060 445.968750,706.742432 449.565094,705.085815 
	C453.565216,703.243164 455.212219,699.691528 454.068085,694.500366 
z"/>
<path fill="#000000" opacity="1.000000" stroke="none" 
	d="
M722.691895,704.531372 
	C717.380432,711.414429 710.090393,708.963928 703.536987,709.352356 
	C701.849426,709.452332 701.721313,707.690002 701.714966,706.338196 
	C701.686768,700.370239 701.730469,694.401733 701.665527,688.434265 
	C701.639893,686.078186 702.829834,685.209839 705.002258,685.099182 
	C708.836975,684.903870 712.687866,685.084778 716.352844,686.081238 
	C724.026672,688.167664 726.729858,695.934265 722.691895,704.531372 
M710.467651,688.932129 
	C709.802368,688.949890 709.136902,688.961121 708.471924,688.986450 
	C706.158142,689.074585 705.088989,690.416321 705.368103,692.574890 
	C705.945557,697.040710 703.281433,702.299377 706.853394,705.832153 
	C709.507996,708.457703 718.115173,705.030212 719.873108,701.467163 
	C722.894714,695.342957 719.151672,689.860474 710.467651,688.932129 
z"/>
<path fill="#000000" opacity="1.000000" stroke="none" 
	d="
M376.345428,686.735840 
	C379.221466,683.435059 379.683289,685.837341 380.059692,687.962219 
	C381.508514,696.141357 382.001770,696.453308 390.634583,695.757019 
	C393.374756,695.535950 394.569611,694.457275 394.351654,691.701233 
	C394.172729,689.438354 393.604034,687.042725 395.621613,685.230347 
	C397.877594,685.070374 398.195160,686.596191 398.206848,688.138123 
	C398.252350,694.134521 398.233459,700.131958 398.171722,706.128235 
	C398.158234,707.440063 398.091156,709.079651 396.362274,709.228638 
	C394.241272,709.411316 394.241180,707.587585 393.997833,706.116760 
	C393.633514,703.914490 394.982117,700.828918 392.460693,699.732971 
	C389.249908,698.337402 385.498108,698.775330 382.125519,699.493652 
	C379.249512,700.106201 380.563263,703.061829 380.200470,705.045105 
	C379.904236,706.664612 380.877716,709.285950 377.974823,709.115967 
	C375.712860,708.983398 376.050446,706.708618 376.049591,705.131226 
	C376.046356,699.136719 376.158447,693.142212 376.345428,686.735840 
z"/>
<path fill="#000000" opacity="1.000000" stroke="none" 
	d="
M620.419678,704.219238 
	C616.337097,694.280273 620.579041,686.208862 629.822815,685.586609 
	C636.455444,685.140198 641.442993,687.852112 643.176453,692.847473 
	C645.062927,698.283875 643.517822,704.186951 639.406677,707.250671 
	C634.982056,710.547791 627.010986,710.354309 622.601562,706.780945 
	C621.842407,706.165588 621.284424,705.302063 620.419678,704.219238 
M626.876404,690.051453 
	C626.343567,690.447937 625.741028,690.777893 625.288940,691.251526 
	C621.891968,694.810486 621.416321,698.822937 623.909424,702.539795 
	C626.069641,705.760376 631.196533,706.976685 635.147217,705.205811 
	C638.974915,703.490051 640.786926,699.600586 639.591187,695.179749 
	C638.348389,690.584778 634.953247,688.953430 630.484985,689.124512 
	C629.501526,689.162048 628.528442,689.470337 626.876404,690.051453 
z"/>
<path fill="#000000" opacity="1.000000" stroke="none" 
	d="
M550.540894,704.329163 
	C552.072266,708.180237 554.917664,705.669006 557.107056,706.090820 
	C559.532288,706.558105 563.919495,704.980896 563.905457,707.901428 
	C563.887146,711.711731 559.760559,709.156494 557.446838,709.506836 
	C556.801880,709.604614 556.122620,709.453491 555.459290,709.456177 
	C546.044006,709.494385 546.015808,709.495667 546.138123,699.875671 
	C546.171875,697.224060 546.495117,694.577087 546.570129,691.924744 
	C546.764709,685.049133 546.741333,684.910095 553.853210,685.025696 
	C557.247681,685.080872 561.052002,683.831482 564.253906,687.064697 
	C561.588562,689.886719 558.447266,688.576965 555.685669,688.898193 
	C553.289551,689.176941 550.440002,688.476624 550.336060,692.364624 
	C550.229797,696.340637 553.076538,695.710693 555.498169,695.899109 
	C557.682373,696.069092 560.132446,695.250244 562.094421,697.423340 
	C560.168884,700.537354 557.232239,699.284546 554.883118,699.267761 
	C551.372559,699.242798 549.924744,700.528687 550.540894,704.329163 
z"/>
<path fill="#000000" opacity="1.000000" stroke="none" 
	d="
M494.865326,709.372681 
	C486.747772,709.245178 482.462799,706.288330 480.983856,700.109253 
	C479.699310,694.742310 481.819794,689.658875 486.837860,687.036194 
	C492.008942,684.333618 497.205963,684.939819 501.958618,688.136963 
	C505.695679,690.650879 507.425568,696.574036 505.924347,701.181458 
	C504.270081,706.258667 500.920197,709.328491 494.865326,709.372681 
M501.753845,693.885010 
	C498.208099,688.753784 493.623322,687.305176 489.052673,689.871948 
	C485.375092,691.937195 483.723969,696.704590 485.339935,700.592163 
	C487.235138,705.151367 491.366821,707.021790 496.419037,705.607849 
	C501.094452,704.299377 503.153931,700.255249 501.753845,693.885010 
z"/>
<path fill="#000000" opacity="1.000000" stroke="none" 
	d="
M334.422974,699.149231 
	C328.774750,698.760986 329.561920,702.082642 330.005371,705.352112 
	C334.543121,707.290710 339.785919,704.432556 343.990570,707.635986 
	C343.331451,710.280396 341.495483,709.609131 339.933807,709.555054 
	C339.101990,709.526367 338.271942,709.443359 337.440125,709.418457 
	C325.762451,709.068604 325.762421,709.070007 325.772827,697.539795 
	C325.773285,697.039978 325.692963,696.525269 325.783691,696.042664 
	C326.462555,692.430481 323.583221,687.097290 327.363159,685.466980 
	C332.036865,683.451294 337.782227,684.199036 343.029144,685.372986 
	C343.369293,685.449158 343.575562,686.123413 343.954529,686.682312 
	C341.562500,689.537354 338.370300,688.144043 335.626678,688.233521 
	C329.288757,688.440247 329.283997,688.294373 330.130981,695.000488 
	C333.691589,696.924988 338.249298,694.379578 342.194214,697.035522 
	C340.072052,699.958679 337.242035,698.833069 334.422974,699.149231 
z"/>
<path fill="#000000" opacity="1.000000" stroke="none" 
	d="
M518.418335,705.597656 
	C524.630371,707.291870 526.438354,706.186462 527.474426,700.213318 
	C527.692566,698.955505 527.793396,697.858521 529.408997,697.973450 
	C530.653259,698.061829 530.899658,699.011780 531.159607,700.028015 
	C532.669312,705.928833 530.455200,708.985474 524.299438,709.330627 
	C519.584778,709.595032 514.947876,709.581970 511.468903,705.535828 
	C507.220551,700.594910 507.295410,693.974976 511.723450,689.278076 
	C515.954712,684.789917 524.647644,683.707764 529.172485,687.121216 
	C529.948547,687.706604 530.978455,688.266846 530.533386,689.480774 
	C529.998596,690.939270 528.808960,690.796326 527.625610,690.395813 
	C526.683655,690.077148 525.778931,689.622070 524.818542,689.388672 
	C519.532166,688.103821 515.030457,690.095215 513.154907,694.495056 
	C511.335205,698.763855 512.946777,702.358887 518.418335,705.597656 
z"/>
<path fill="#000000" opacity="1.000000" stroke="none" 
	d="
M356.563171,689.356567 
	C351.927826,693.524170 350.857513,697.908630 353.216827,701.859680 
	C355.610138,705.867676 360.538635,707.172546 365.934265,705.135803 
	C367.333374,704.607605 368.792297,703.520325 369.720398,705.525330 
	C370.340057,706.864136 369.110718,707.602478 368.134796,708.235474 
	C363.412231,711.298401 353.392944,709.128723 350.005188,704.323792 
	C346.274078,699.031921 347.166229,691.452393 351.968384,687.643799 
	C357.433563,683.309326 365.832001,683.723083 370.903076,689.150879 
	C365.976196,691.230347 361.244049,686.011353 356.563171,689.356567 
z"/>
<path fill="#000000" opacity="1.000000" stroke="none" 
	d="
M576.009460,709.385864 
	C572.314026,709.294250 568.989868,709.370117 567.180176,705.976318 
	C568.413574,704.031555 569.726196,704.668213 570.935120,705.129944 
	C573.172729,705.984741 575.481140,706.076843 577.807068,705.842712 
	C579.352417,705.687012 580.874146,705.199829 580.999390,703.323181 
	C581.100708,701.805847 580.034485,700.876526 578.725037,700.378113 
	C576.398804,699.492676 573.957886,698.877136 571.700745,697.850281 
	C569.098877,696.666504 567.505737,694.604797 567.709595,691.549438 
	C567.917114,688.438416 569.983704,686.853394 572.636597,685.934692 
	C576.931702,684.447205 581.462524,685.560791 584.243591,688.672119 
	C583.021667,691.279602 581.168823,689.594666 579.571228,689.307007 
	C577.800903,688.988342 576.091675,688.068726 574.244080,689.018433 
	C573.031067,689.641968 571.815308,690.306274 571.746399,691.836487 
	C571.686951,693.158813 572.683044,693.977478 573.717773,694.494751 
	C575.193115,695.232544 576.736084,695.909851 578.324829,696.331604 
	C582.340210,697.397339 585.803406,699.115540 585.125610,703.988831 
	C584.441528,708.906982 580.548950,709.508057 576.009460,709.385864 
z"/>
<path fill="#000000" opacity="1.000000" stroke="none" 
	d="
M599.813843,701.272949 
	C603.317993,706.931213 608.036499,706.623108 613.113464,704.806824 
	C614.257324,704.397583 615.494812,704.016785 616.236755,705.255798 
	C617.034912,706.588745 615.948547,707.368835 614.967346,708.056946 
	C610.298462,711.331116 600.223877,709.267517 597.021240,704.381470 
	C592.892883,698.083130 594.472351,690.721863 600.724304,687.123047 
	C606.091064,684.033875 613.923096,685.385193 616.337708,689.891785 
	C614.346802,691.900635 612.659241,689.881348 610.979065,689.354248 
	C607.327209,688.208496 604.076843,688.475769 601.377625,691.391724 
	C598.790833,694.186340 597.833374,697.332520 599.813843,701.272949 
z"/>
<path fill="#000000" opacity="1.000000" stroke="none" 
	d="
M689.927612,706.265930 
	C689.642334,707.793213 689.596558,709.205872 688.050049,709.201233 
	C686.183472,709.195557 686.134949,707.566833 686.091736,706.298889 
	C685.955994,702.319031 685.770203,698.324829 685.967407,694.354187 
	C686.167847,690.319824 685.110962,687.875977 680.505371,688.310181 
	C679.574402,688.397949 678.473450,688.220886 678.151062,686.972900 
	C681.173218,684.077209 694.505737,684.117126 698.016602,687.043030 
	C697.506042,689.076233 695.776184,688.883118 694.413757,688.685608 
	C690.524475,688.121948 689.931885,690.301331 689.987793,693.401611 
	C690.062561,697.549927 689.974243,701.701294 689.927612,706.265930 
z"/>
<path fill="#000000" opacity="1.000000" stroke="none" 
	d="
M301.745697,685.000488 
	C308.535126,685.030029 315.036041,683.708435 321.292633,685.681396 
	C321.047363,687.672363 320.175690,688.270752 319.127258,688.124756 
	C313.059906,687.280151 312.808350,690.972290 313.101166,695.436401 
	C313.317780,698.738892 313.192657,702.071655 313.068756,705.385254 
	C313.009674,706.964355 313.141205,709.120605 310.721466,708.966675 
	C308.709045,708.838684 308.872925,706.909363 308.848297,705.464539 
	C308.780365,701.484009 308.661499,697.494751 308.847870,693.522278 
	C309.019684,689.859741 307.987579,687.968201 303.862518,688.103882 
	C300.878235,688.201965 300.865295,687.808777 301.745697,685.000488 
z"/>
<path fill="#000000" opacity="1.000000" stroke="none" 
	d="
M663.713501,687.700195 
	C666.579773,685.328369 667.126831,685.463623 667.262329,688.690613 
	C667.450623,693.173462 667.446899,697.673706 667.291748,702.158386 
	C667.188538,705.142578 668.164062,706.320251 671.307068,706.189880 
	C674.251343,706.067688 677.489319,705.351562 680.014954,707.258728 
	C679.973389,709.487488 678.768127,709.798950 677.613220,709.835632 
	C675.794861,709.893433 673.965637,709.763611 672.146912,709.631775 
	C663.697083,709.019470 663.688416,709.009583 663.658386,700.597229 
	C663.643555,696.439575 663.671021,692.281738 663.713501,687.700195 
z"/>
<path fill="#000000" opacity="1.000000" stroke="none" 
	d="
M463.640686,705.232056 
	C463.649506,698.554260 463.649506,692.268250 463.649506,685.919556 
	C467.232483,686.467224 467.235443,686.467224 467.253754,694.750244 
	C467.261810,698.378479 467.255096,702.006775 467.255096,705.645325 
	C471.828857,707.174438 476.661560,704.666565 481.381134,708.734314 
	C475.265015,709.980042 470.063507,709.707275 464.948486,709.464355 
	C463.184998,709.380554 463.659485,707.082275 463.640686,705.232056 
z"/>
<path fill="#000000" opacity="1.000000" stroke="none" 
	d="
M538.042114,708.852112 
	C535.764771,701.870850 537.075623,694.891235 536.853638,687.968628 
	C536.819336,686.898254 537.323181,685.954651 538.538086,685.881592 
	C539.478210,685.825073 540.167175,686.467285 540.168213,687.393005 
	C540.175781,694.352112 540.941040,701.331726 539.679749,708.253967 
	C539.624756,708.555542 538.896179,708.734375 538.042114,708.852112 
z"/>
</svg>